:SAMPLES-PER-SECOND 30
:FULLY-SPECIFIED
:DEGREES
30
root  -44.8411 44.1233 -3.69968 167.371 88.261 163.239
RightUpLeg  -22.9829 4.63367 1.74179
RightLeg  3.96506 2.04705 -0.279427
RightFoot  29.0022 -2.07248 5.45025
RightToes  8.73114e-010 -1.59028e-015 9.93923e-017
Spine  7.26027 -0.11695 0.895936
Spine1  15.6521 -0.292186 0.838612
HEad  -9.60849 -0.625388 1.79776
LeftShoulder1  9.93923e-017 0 1.22299e-017
LeftArm  8.68519 65.2169 -72.0203
LeftForeArm  -23.9279 -18.7386 3.44118
LeftHand  0.790119 5.57864 -0.518263
RightShoulder  1.98785e-016 -4.96962e-017 1.55301e-017
RightArm  44.1461 -39.4061 77.9773
RightForeArm  -45.2497 21.5474 -21.134
RightHand  0.953634 -10.5326 0.470127
LeftUpLeg  -24.6997 -5.81406 -3.42534
LeftLeg  6.07423 -6.90076 0.764173
LeftFoot  18.0148 3.56856 -12.3114
LeftToes  -2.6557e-010 -5.74853e-011 7.92038e-011
31
root  -42.6462 41.7098 -3.76929 166.82 87.4237 164.558
RightUpLeg  -23.1507 2.93187 1.89624
RightLeg  8.59779 3.35879 -0.447252
RightFoot  27.5652 -0.842533 2.44417
RightToes  8.73114e-010 -1.59028e-015 9.93923e-017
Spine  9.44746 0.0439466 2.06624
Spine1  16.2998 -0.138747 0.763156
HEad  -10.005 -1.61305 1.74336
LeftShoulder1  9.93923e-017 0 1.22299e-017
LeftArm  4.84336 66.4077 -71.2535
LeftForeArm  -19.8907 -17.1415 1.72211
LeftHand  0.747982 5.23463 -0.791881
RightShoulder  1.98785e-016 -4.96962e-017 1.55301e-017
RightArm  45.5067 -40.0904 79.2496
RightForeArm  -47.6832 20.9029 -20.6583
RightHand  0.885019 -10.0236 1.20301
LeftUpLeg  -23.918 -5.40906 -3.79553
LeftLeg  5.70362 -6.16043 -0.151939
LeftFoot  22.6228 3.845 -11.7612
LeftToes  -2.6557e-010 -5.74853e-011 7.92038e-011
32
root  -40.5601 39.1836 -3.80485 161.283 86.9301 160.823
RightUpLeg  -25.4018 0.154635 2.6206
RightLeg  22.684 7.94368 -0.316315
RightFoot  12.9364 0.748669 -3.48529
RightToes  8.73114e-010 -1.59028e-015 9.93923e-017
Spine  11.5961 -0.0551423 1.6978
Spine1  16.5542 -0.266749 0.992093
HEad  -11.9657 -1.86469 1.37091
LeftShoulder1  9.93923e-017 0 1.22299e-017
LeftArm  -3.18399 66.824 -71.3893
LeftForeArm  -12.8024 -13.7555 -0.823644
LeftHand  0.730014 5.11976 -0.650549
RightShoulder  1.98785e-016 -4.96962e-017 1.55301e-017
RightArm  46.7447 -38.8423 80.5909
RightForeArm  -47.7349 20.3635 -17.7594
RightHand  0.916063 -10.186 0.616852
LeftUpLeg  -26.608 -5.01791 -4.66726
LeftLeg  16.3318 -8.33803 -0.345934
LeftFoot  17.2155 1.42116 -4.97383
LeftToes  -2.6557e-010 -5.74853e-011 7.92038e-011
33
root  -38.571 36.7385 -3.83895 157.662 86.8833 158.311
RightUpLeg  -29.1163 -0.556849 3.07863
RightLeg  40.3606 8.68717 -1.2787
RightFoot  -6.56101 0.435741 -8.96501
RightToes  8.73114e-010 -1.59028e-015 9.93923e-017
Spine  13.5423 -0.120267 0.830914
Spine1  16.3191 -0.435693 1.28922
HEad  -15.6496 -2.20701 0.935001
LeftShoulder1  9.93923e-017 0 1.22299e-017
LeftArm  -15.292 64.0092 -74.1179
LeftForeArm  -6.75231 -8.03883 -3.14624
LeftHand  0.818249 5.75437 -0.847419
RightShoulder  1.98785e-016 -4.96962e-017 1.55301e-017
RightArm  37.3069 -35.7777 81.968
RightForeArm  -37.9378 19.2908 -9.44617
RightHand  1.14965 -11.4594 -1.99254
LeftUpLeg  -32.2527 -6.93744 -5.20778
LeftLeg  34.4854 -8.28876 1.66101
LeftFoot  3.9596 -0.345352 2.9407
LeftToes  -2.6557e-010 -5.74853e-011 7.92038e-011
34
root  -36.7562 34.9972 -3.87724 163.877 86.986 165.372
RightUpLeg  -31.616 0.102685 3.79134
RightLeg  53.9202 7.62697 -4.21018
RightFoot  -18.3194 -0.351951 -8.57005
RightToes  8.73114e-010 -1.59028e-015 9.93923e-017
Spine  15.6104 -0.0969932 1.28104
Spine1  15.465 -0.24176 0.855913
HEad  -18.15 -3.19291 1.53114
LeftShoulder1  9.93923e-017 0 1.22299e-017
LeftArm  -23.147 56.875 -77.4087
LeftForeArm  -6.69671 -3.78154 -3.9953
LeftHand  0.927452 6.5513 -1.47324
RightShoulder  1.98785e-016 -4.96962e-017 1.55301e-017
RightArm  20.0207 -33.0003 83.2537
RightForeArm  -23.5505 15.8829 -1.18877
RightHand  1.3979 -12.68 -4.02044
LeftUpLeg  -35.8754 -10.3051 -5.02437
LeftLeg  48.9258 -6.78822 6.0267
LeftFoot  -8.14117 -0.266757 4.88585
LeftToes  -2.6557e-010 -5.74853e-011 7.92038e-011
35
root  -35.1344 34.3792 -3.85384 168.793 86.355 170.718
RightUpLeg  -31.8645 0.814793 4.1858
RightLeg  60.5124 7.20088 -6.48272
RightFoot  -19.807 -0.206813 -3.52558
RightToes  8.73114e-010 -1.59028e-015 9.93923e-017
Spine  17.2809 -0.317654 1.72765
Spine1  14.1562 -0.0667073 -0.366003
HEad  -17.1429 -3.93065 3.24945
LeftShoulder1  9.93923e-017 0 1.22299e-017
LeftArm  -24.3614 48.1503 -79.1263
LeftForeArm  -7.97924 -4.30234 -3.99557
LeftHand  0.926965 6.53335 -1.68077
RightShoulder  1.98785e-016 -4.96962e-017 1.55301e-017
RightArm  13.6417 -31.9418 84.7978
RightForeArm  -20.3464 15.0444 0.184678
RightHand  1.37305 -12.7358 -3.47642
LeftUpLeg  -35.7085 -13.0981 -4.94028
LeftLeg  54.9986 -6.16517 8.86537
LeftFoot  -14.2137 -0.0384046 2.37167
LeftToes  -2.6557e-010 -5.74853e-011 7.92038e-011
36
root  -33.5841 34.5683 -3.7594 169.938 85.0184 171.383
RightUpLeg  -30.8495 0.829812 4.09251
RightLeg  62.4311 7.34397 -6.83238
RightFoot  -16.4006 0.0366276 1.71602
RightToes  8.73114e-010 -1.59028e-015 9.93923e-017
Spine  17.5365 -0.806376 0.757346
Spine1  12.6957 -0.546864 -1.21655
HEad  -14.1395 -3.62805 4.93915
LeftShoulder1  9.93923e-017 0 1.22299e-017
LeftArm  -17.639 40.8905 -79.8182
LeftForeArm  -11.4399 -10.294 -2.43665
LeftHand  0.846634 5.91842 -1.43441
RightShoulder  1.98785e-016 -4.96962e-017 1.55301e-017
RightArm  22.353 -32.3177 86.4558
RightForeArm  -29.7192 17.7212 -5.05025
RightHand  1.23152 -12.113 -2.20297
LeftUpLeg  -33.584 -13.522 -5.09602
LeftLeg  55.544 -6.85267 7.9899
LeftFoot  -15.5277 -0.0257531 0.880395
LeftToes  -2.6557e-010 -5.74853e-011 7.92038e-011
37
root  -32.023 35.1201 -3.64867 174.24 83.6535 174.706
RightUpLeg  -29.5755 0.14329 4.2949
RightLeg  62.7721 7.73982 -6.07995
RightFoot  -10.9159 -0.0878885 4.21128
RightToes  8.73114e-010 -1.59028e-015 9.93923e-017
Spine  16.7628 -1.42147 -0.587023
Spine1  11.3995 -1.54075 -1.03521
HEad  -12.1253 -2.83594 5.8384
LeftShoulder1  9.93923e-017 0 1.22299e-017
LeftArm  -3.06425 35.2897 -80.3558
LeftForeArm  -23.6062 -17.9387 3.09249
LeftHand  0.78846 5.58716 -0.32864
RightShoulder  1.98785e-016 -4.96962e-017 1.55301e-017
RightArm  30.4652 -33.2888 87.5456
RightForeArm  -38.2071 19.3917 -10.6595
RightHand  1.24256 -11.9287 -2.87529
LeftUpLeg  -31.1338 -11.6148 -4.68045
LeftLeg  54.6272 -8.59289 4.88395
LeftFoot  -15.0381 -0.0286691 1.1611
LeftToes  -2.6557e-010 -5.74853e-011 7.92038e-011
38
root  -30.4469 35.9097 -3.55528 179.523 82.5707 179.369
RightUpLeg  -28.1685 -0.550547 4.79094
RightLeg  62.2948 8.08911 -5.16686
RightFoot  -3.75827 -0.31279 3.90542
RightToes  8.73114e-010 -1.59028e-015 9.93923e-017
Spine  16.0081 -1.96956 -1.46636
Spine1  10.25 -2.47354 -0.452764
HEad  -11.5182 -2.42372 6.23746
LeftShoulder1  9.93923e-017 0 1.22299e-017
LeftArm  9.6728 30.3714 -80.7376
LeftForeArm  -37.8201 -22.4054 9.67148
LeftHand  0.764405 5.58746 1.41194
RightShoulder  1.98785e-016 -4.96962e-017 1.55301e-017
RightArm  30.2456 -34.5002 87.9669
RightForeArm  -39.5704 19.605 -12.1682
RightHand  1.35401 -12.1693 -4.46509
LeftUpLeg  -27.9415 -9.62117 -3.66414
LeftLeg  52.6701 -10.1847 2.05423
LeftFoot  -13.6554 -0.0396784 0.591144
LeftToes  -2.6557e-010 -5.74853e-011 7.92038e-011
39
root  -28.8075 36.8428 -3.48707 -177.597 81.9081 -178.198
RightUpLeg  -26.9045 -0.685687 5.1201
RightLeg  60.5198 8.18639 -4.51075
RightFoot  1.57899 -0.323819 2.56107
RightToes  8.73114e-010 -1.59028e-015 9.93923e-017
Spine  15.063 -2.43253 -2.22585
Spine1  9.12584 -3.20218 -0.00605526
HEad  -10.7566 -2.0951 6.39813
LeftShoulder1  9.93923e-017 0 1.22299e-017
LeftArm  17.3431 26.3985 -80.8332
LeftForeArm  -47.6068 -24.5673 14.6314
LeftHand  0.790605 5.76956 1.69387
RightShoulder  1.98785e-016 -4.96962e-017 1.55301e-017
RightArm  28.2145 -36.1456 87.9583
RightForeArm  -38.4451 19.4708 -11.5527
RightHand  1.32142 -12.074 -4.08689
LeftUpLeg  -23.6329 -8.8797 -2.69224
LeftLeg  48.506 -10.9767 0.507854
LeftFoot  -11.4519 -0.0128839 -1.07759
LeftToes  -2.6557e-010 -5.74853e-011 7.92038e-011
40
root  -27.0835 37.737 -3.4539 -174.961 81.9438 -176.59
RightUpLeg  -26.6195 -0.16234 5.32093
RightLeg  57.3015 7.95701 -4.22018
RightFoot  2.58392 -0.236335 1.71164
RightToes  8.73114e-010 -1.59028e-015 9.93923e-017
Spine  13.0975 -2.93051 -2.91456
Spine1  8.10037 -3.85214 0.464721
HEad  -9.57478 -1.00585 6.09372
LeftShoulder1  9.93923e-017 0 1.22299e-017
LeftArm  18.7915 24.0287 -80.2808
LeftForeArm  -48.781 -26.7764 17.3048
LeftHand  0.877152 6.23497 -0.3854
RightShoulder  1.98785e-016 -4.96962e-017 1.55301e-017
RightArm  30.9897 -38.3323 87.7119
RightForeArm  -39.7669 19.6082 -12.0052
RightHand  1.14248 -11.4415 -1.91623
LeftUpLeg  -19.0795 -8.94087 -1.8877
LeftLeg  42.6804 -11.1273 -0.0815317
LeftFoot  -9.13461 0.0625901 -2.406
LeftToes  -2.6557e-010 -5.74853e-011 7.92038e-011
41
root  -25.3427 38.5093 -3.44403 -169.831 82.7894 -172.896
RightUpLeg  -27.3909 0.876919 5.53285
RightLeg  52.4536 7.67708 -3.74369
RightFoot  1.73191 -0.251613 1.95029
RightToes  8.73114e-010 -1.59028e-015 9.93923e-017
Spine  10.5439 -3.36985 -3.21814
Spine1  7.34686 -4.32625 1.0735
HEad  -9.16423 0.735559 5.38815
LeftShoulder1  9.93923e-017 0 1.22299e-017
LeftArm  16.9687 22.7402 -79.2562
LeftForeArm  -45.3223 -29.616 18.7925
LeftHand  0.955729 6.74651 -2.55784
RightShoulder  1.98785e-016 -4.96962e-017 1.55301e-017
RightArm  35.9906 -40.9276 87.1905
RightForeArm  -43.3179 19.9063 -13.6063
RightHand  1.03951 -10.9701 -0.686998
LeftUpLeg  -14.8116 -9.20323 -1.06727
LeftLeg  36.5674 -10.6811 -0.0519957
LeftFoot  -7.07019 0.180567 -3.66626
LeftToes  -2.6557e-010 -5.74853e-011 7.92038e-011
42
root  -23.6305 39.1785 -3.43451 -161.161 83.9793 -165.23
RightUpLeg  -28.1032 2.07479 5.78339
RightLeg  45.4273 7.79632 -2.6007
RightFoot  1.96248 -0.398341 3.01945
RightToes  8.73114e-010 -1.59028e-015 9.93923e-017
Spine  8.49616 -3.62041 -3.13517
Spine1  7.01603 -4.57051 1.74848
HEad  -9.85086 2.33992 4.73936
LeftShoulder1  9.93923e-017 0 1.22299e-017
LeftArm  15.422 21.434 -78.2532
LeftForeArm  -43.068 -32.5193 20.1067
LeftHand  0.982945 6.96094 -2.88171
RightShoulder  1.98785e-016 -4.96962e-017 1.55301e-017
RightArm  38.5263 -43.5859 86.3416
RightForeArm  -47.0843 20.1232 -14.749
RightHand  1.07032 -11.0849 -1.14915
LeftUpLeg  -10.2187 -9.69353 -0.282284
LeftLeg  30.4363 -9.45961 0.384896
LeftFoot  -4.63729 0.417805 -5.59745
LeftToes  -2.6557e-010 -5.74853e-011 7.92038e-011
43
root  -21.9197 39.6673 -3.41561 -149.754 84.8124 -154.396
RightUpLeg  -28.2166 2.98794 6.06715
RightLeg  36.2834 8.27081 -1.30614
RightFoot  2.69233 -0.603785 4.35497
RightToes  8.73114e-010 -1.59028e-015 9.93923e-017
Spine  6.81524 -3.87118 -2.97827
Spine1  7.19064 -4.86546 2.49768
HEad  -10.7889 3.64168 4.32405
LeftShoulder1  9.93923e-017 0 1.22299e-017
LeftArm  14.6507 19.8805 -77.3783
LeftForeArm  -42.3779 -35.1445 21.3359
LeftHand  0.981921 6.96394 -2.28236
RightShoulder  1.98785e-016 -4.96962e-017 1.55301e-017
RightArm  38.8659 -45.9896 85.2595
RightForeArm  -49.8435 20.2376 -14.9756
RightHand  1.11139 -11.2918 -1.60125
LeftUpLeg  -5.23995 -10.515 0.316716
LeftLeg  24.3407 -7.60139 0.801425
LeftFoot  -1.80258 0.736684 -7.26754
LeftToes  -2.6557e-010 -5.74853e-011 7.92038e-011
